<?xml version="1.0" encoding="utf-8"?>
<!-- Generator: Adobe Illustrator 16.0.0, SVG Export Plug-In . SVG Version: 6.00 Build 0)  -->
<!DOCTYPE svg PUBLIC "-//W3C//DTD SVG 1.1//EN" "http://www.w3.org/Graphics/SVG/1.1/DTD/svg11.dtd">
<svg version="1.1" id="レイヤー_1" xmlns="http://www.w3.org/2000/svg" xmlns:xlink="http://www.w3.org/1999/xlink" x="0px"
	 y="0px" width="168.074px" height="40px" viewBox="0 0 168.074 40" enable-background="new 0 0 168.074 40" xml:space="preserve">
<g>
	<g>
		<title>logo</title>
		<g id="レイヤー_2_1_">
			<g id="上部_1_">
				<path fill="#040000" d="M52.274,8.475h-7.197V6.801h0.175L44.06,5.484c1.394-0.925,2.443-2.284,2.982-3.865l1.846,0.308
					c-0.101,0.372-0.237,0.733-0.402,1.081h4.449V4.64H50.08c0.265,0.383,0.499,0.79,0.694,1.215l-1.91,0.788
					c-0.22-0.676-0.482-1.338-0.79-1.98H47.54c-0.547,0.834-1.24,1.563-2.042,2.155h15.464v4.733h-6.777v1.507h7.509
					c-0.078,3.274-0.229,4.56-0.638,5.042c-0.387,0.469-0.97,0.73-1.577,0.709h-2.793l-0.387-2.003h2.368
					c0.709,0,0.789,0,0.977-2.085h-5.522v5.105h-1.846v-4.615c-2.11,1.913-4.653,3.287-7.409,4l-0.79-1.831
					c2.271-0.424,4.423-1.331,6.312-2.659h-5.54c0.557-1.544,0.938-3.144,1.135-4.772h6.312L52.274,8.475z M52.274,11.536h-4.576
					c-0.055,0.323-0.174,1.001-0.308,1.523h4.891L52.274,11.536z M55.428,4.647c-0.457,0.747-1.021,1.42-1.673,2.004l-1.482-1.167
					c1.207-1.007,2.109-2.333,2.603-3.826l1.751,0.291c-0.083,0.36-0.194,0.713-0.332,1.059h5.91V4.64h-3.772
					c0.245,0.406,0.47,0.823,0.671,1.254l-1.768,0.788c-0.615-1.428-0.694-1.577-0.947-2.059L55.428,4.647z M54.174,9.958h4.828
					V8.475H54.18L54.174,9.958z"/>
				<path fill="#040000" d="M63.523,9.531h18.02v2.06h-18.02V9.531z"/>
				<path fill="#040000" d="M97.717,8.112v1.577c-1.487,1.247-3.138,2.283-4.907,3.078v0.149h8.087v1.886H92.8v3.448
					c-0.028,0.859-0.719,1.55-1.578,1.578H87.45l-0.386-1.996h3.156c0.536,0,0.536-0.267,0.536-0.615V14.85h-8.094v-1.91h8.064v-1.5
					h0.843c1.035-0.327,2-0.843,2.848-1.522h-8.56V8.113L97.717,8.112L97.717,8.112z M85.685,4.837
					c-0.322-0.817-0.707-1.61-1.153-2.367l1.87-0.695c0.621,0.901,1.108,1.883,1.453,2.919l-0.442,0.174h3.834
					c-0.356-0.887-0.796-1.737-1.31-2.541l1.908-0.733c0.592,0.947,1.082,1.954,1.46,3.006l-0.639,0.213h3.155
					c0.505-1.018,0.93-2.073,1.271-3.156l2.216,0.655c-0.362,0.865-0.785,1.699-1.271,2.501h2.438v4.41h-1.971V6.667H85.094v2.581
					h-1.917v-4.41H85.685z"/>
				<path fill="#040000" d="M107.5,7.915c-1.721,0.708-3.49,1.292-5.293,1.751l-0.537-1.909c1.921-0.333,3.803-0.863,5.618-1.578
					L107.5,7.915z M101.976,2.352h8.331v6.722c0,0.788-0.465,1.499-1.751,1.499h-2.249L106,8.688h2.074c0.16,0,0.365,0,0.365-0.291
					V4.008h-6.47L101.976,2.352z M103.477,4.024c1.03,0.296,2.025,0.703,2.965,1.215l-0.844,1.578
					c-0.93-0.57-1.93-1.017-2.975-1.333L103.477,4.024z M118.049,11.363v8.465h-1.966v-0.789h-10.319v0.789h-1.965v-8.465h6.312
					c0.177-0.483,0.312-0.979,0.402-1.484l2.044,0.267c-0.159,0.427-0.191,0.538-0.466,1.217H118.049z M105.788,13.019v1.287h10.296
					v-1.287H105.788z M105.788,15.851v1.468h10.296V15.82L105.788,15.851z M116.566,7.851c-1.633,0.697-3.312,1.276-5.027,1.736
					l-0.521-1.886c1.812-0.339,3.589-0.841,5.31-1.499L116.566,7.851z M112.486,4.041H111.2V2.327h8.212v6.486
					c0,1.579-0.844,1.737-1.578,1.737h-2.287l-0.385-1.886h2.137c0.253,0,0.253-0.15,0.253-0.323V4.008h-4.986
					c1.039,0.247,2.033,0.656,2.943,1.216l-0.884,1.523c-0.905-0.581-1.893-1.022-2.927-1.311L112.486,4.041z"/>
				<path fill="#040000" d="M126.151,19.828h-2.002v-7.425c-0.714,0.691-1.509,1.293-2.368,1.792l-0.787-1.965
					c2.289-1.279,4.122-3.244,5.239-5.618h-4.963V4.696h2.879V1.72h1.98v2.976h2.249v1.908c-0.508,1.162-1.16,2.253-1.941,3.251
					c0.791,0.907,1.697,1.703,2.698,2.366l-0.924,1.831c-0.762-0.598-1.46-1.275-2.082-2.02L126.151,19.828z M132.714,1.68h2.02
					v5.445h4.121v2.059h-4.121v7.889h4.562v2.06h-11.426v-1.994h4.853V9.249h-4.024V7.165h4.024L132.714,1.68z"/>
				<rect x="0" fill="#070001" width="40" height="40"/>
				<rect x="0" fill="#336392" width="40" height="40"/>
				<path fill="#FFFFFF" d="M34.967,25.594c2.468-8.294-2.256-17.018-10.55-19.486c-0.516-0.153-1.04-0.279-1.567-0.379L22.123,4.53
					c8.32,1.114,14.536,8.206,14.55,16.599c0.003,1.917-0.329,3.817-0.979,5.618L34.967,25.594z M33.389,31.084
					c-5.478,7.438-15.949,9.027-23.386,3.55c-1.354-0.998-2.552-2.195-3.55-3.55h1.342c5.496,6.683,15.371,7.647,22.054,2.151
					c0.785-0.647,1.507-1.366,2.152-2.151H33.389z M4.181,26.841C1.032,18.147,5.527,8.546,14.22,5.397
					c1.127-0.408,2.296-0.695,3.484-0.854l-0.726,1.2C9.615,7.192,4.29,13.625,4.244,21.128c-0.001,1.524,0.221,3.04,0.663,4.498
					L4.181,26.841z"/>
				<polygon fill="#FFFFFF" points="32.41,22.547 30.944,20.15 8.994,20.15 7.542,22.547 				"/>
				<polygon fill="#FFFFFF" points="30.076,18.729 28.609,16.331 11.298,16.331 9.862,18.729 				"/>
				<polygon fill="#FFFFFF" points="27.741,14.912 26.273,12.513 13.617,12.513 12.183,14.912 				"/>
				<polygon fill="#FFFFFF" points="14.486,11.093 25.405,11.093 23.938,8.678 15.952,8.678 				"/>
				<polygon fill="#FFFFFF" points="34.746,26.367 33.279,23.969 6.675,23.969 5.223,26.367 				"/>
				<polygon fill="#FFFFFF" points="4.355,27.803 2.683,30.549 37.286,30.549 35.615,27.803 				"/>
				<polygon fill="#FFFFFF" points="23.069,7.257 19.928,2.099 16.806,7.257 				"/>
			</g>
		</g>
	</g>
	<g>
		<path fill="#040000" d="M151.678,8.684V1.759h2.591v17.264h-2.591v-7.967h-7.684v7.967h-2.591V1.759h2.591v6.925H151.678z"/>
		<path fill="#040000" d="M165.746,4.895c-1.023-0.717-2.09-1.132-3.331-1.132c-1.827,0-2.982,1.11-2.982,2.547
			c0,1.524,1.09,2.047,2.896,2.678c2.437,0.849,4.962,1.72,4.962,5.137c0,3.027-2.394,5.247-6.073,5.247
			c-1.871,0-3.505-0.458-5.051-1.458l0.741-2.329c1.261,0.892,2.634,1.437,4.135,1.437c1.896,0,3.659-0.915,3.659-2.699
			c0-1.676-1.329-2.416-3.353-3.069c-2.896-0.937-4.507-2.177-4.507-4.812c0-2.939,2.309-5.028,5.485-5.028
			c2.068,0,3.418,0.74,4.026,1.088L165.746,4.895z"/>
	</g>
	<g>
		<path fill="#040000" d="M50.818,25.792c-0.33-0.643-0.502-0.94-0.895-1.583l1.897-0.642c0.596,1.034,0.737,1.317,1.128,2.225h1.74
			c0.234-0.391,0.611-0.987,1.034-2.146l1.99,0.579c-0.22,0.485-0.58,1.128-0.894,1.567h1.754v3.81h-1.896V27.44H46.445v2.163
			h-1.927v-3.81h1.834c-0.111-0.172-0.455-0.768-0.941-1.409l1.849-0.706c0.376,0.532,0.784,1.129,1.302,2.115L50.818,25.792
			L50.818,25.792z M56.365,32.375h-3.839c-0.047,0.142-0.267,0.768-0.313,0.893h5.627v4.906H45.223v-4.906h4.936
			c0.219-0.423,0.283-0.673,0.345-0.893h-3.746v-4.122h9.607L56.365,32.375L56.365,32.375z M55.879,34.819h-8.683v1.71h8.682
			L55.879,34.819L55.879,34.819z M54.501,29.695h-5.846v1.254H54.5L54.501,29.695L54.501,29.695z"/>
		<path fill="#040000" d="M73.625,38.283c-1.708-0.549-3.479-1.238-5.455-2.961v3.117h-1.912v-3.07
			c-1.724,1.583-3.604,2.303-5.454,2.915l-0.94-1.708c1.473-0.408,3.385-0.987,5.046-2.101h-5.015v-1.536h6.363v-0.816h-5.296v-1.33
			h5.296v-0.799h-5.673v-1.489h3.15c-0.046-0.203-0.25-0.816-0.376-1.035h-3.463v-1.614h2.225c-0.11-0.297-0.298-0.768-0.799-1.708
			l1.912-0.454c0.375,0.751,0.548,1.238,0.815,2.162h0.831v-2.084h1.787v2.084h1.144v-2.084h1.771v2.084h0.846
			c0.298-0.626,0.611-1.567,0.784-2.162l1.912,0.454c-0.063,0.158-0.362,0.972-0.769,1.708h2.177v1.614H71.07
			c-0.203,0.58-0.25,0.737-0.376,1.035h3.244v1.489H68.17v0.8h5.375v1.329H68.17v0.816h6.363v1.536h-4.968
			c1.739,1.237,3.793,1.755,5.078,2.053L73.625,38.283z M68.735,28.504c0.095-0.219,0.205-0.502,0.329-1.033h-3.715
			c0.064,0.141,0.315,0.875,0.377,1.033H68.735z"/>
		<path fill="#040000" d="M89.551,38.471c-2.351-0.344-4.67-0.892-6.724-2.084c-2.334,1.254-4.372,1.771-6.504,2.147l-0.831-2.115
			c2.806-0.297,4.562-0.909,5.47-1.333c-1.441-1.221-2.225-2.365-2.758-3.181l1.677-1.001c1.254,1.817,2.414,2.709,2.962,3.102
			c1.566-1.145,2.538-2.462,3.056-3.151h-9.23v-1.879h5.219v-1.771h-6.379V25.26h6.379v-1.567h1.958v1.567h6.442v1.943h-6.442v1.771
			h4.451v1.896c-0.626,1.065-1.599,2.616-3.573,4.232c1.644,0.72,3.243,1.113,5.595,1.221L89.551,38.471z"/>
		<path fill="#040000" d="M91.029,31.764c0.439-0.094,0.925-0.203,1.771-0.439v-3.15h-1.646v-1.801H92.8V23.74h1.864v2.633h1.207
			v1.802h-1.207v2.554c0.298-0.095,0.486-0.173,1.097-0.424L95.73,32.17c-0.251,0.141-0.424,0.236-1.066,0.487v4.685
			c0,0.705-0.47,1.176-1.144,1.176H91.45l-0.234-1.958h1.207c0.265,0,0.375-0.063,0.375-0.439v-2.791
			c-1.082,0.345-1.238,0.376-1.582,0.456L91.029,31.764z M105.728,26.153c-0.14,0.33-0.329,0.847-0.987,1.99h0.877v1.552h-5.516
			c-0.016,0.439-0.016,0.58-0.048,0.83h5.893v1.552h-6.112c-0.094,0.344-0.156,0.581-0.219,0.846h5.47v1.365
			c-0.283,0.516-0.596,1.113-1.613,1.989c1.268,0.362,2.052,0.393,2.726,0.409l-0.799,1.864c-1.458-0.265-2.507-0.61-3.604-1.175
			c-1.348,0.706-2.554,1.003-3.323,1.175l-0.689-1.754c0.641-0.063,1.378-0.157,2.366-0.516c-0.643-0.565-1.018-1.034-1.269-1.348
			l1.253-0.676c0.267,0.315,0.658,0.77,1.568,1.302c0.925-0.581,1.191-0.909,1.504-1.316h-4.059
			c-0.987,2.382-2.21,3.589-2.916,4.278l-1.316-1.379c1.16-1.146,2.461-2.648,3.056-5.062h-1.973v-1.553h2.225
			c0.015-0.25,0.03-0.422,0.047-0.831h-1.928v-1.55h0.863c-0.048-0.221-0.346-1.128-0.533-1.537l1.754-0.361
			c-1.33,0.062-1.488,0.062-2.083,0.047l-0.517-1.722c2.555,0,4.075-0.11,4.812-0.173c2.617-0.219,3.776-0.595,4.278-0.751
			l0.784,1.629c-0.392,0.111-0.706,0.205-1.614,0.378L105.728,26.153z M102.783,28.143c0.517-0.862,0.768-1.457,1.128-2.46
			c-1.834,0.298-3.542,0.455-5.391,0.564c0.031,0.109,0.391,1.034,0.517,1.598l-1.49,0.297h2.711
			c-0.016-0.078-0.423-1.55-0.469-1.739l1.801-0.344c0.344,1.16,0.376,1.301,0.454,1.771l-1.771,0.312L102.783,28.143
			L102.783,28.143z"/>
		<path fill="#040000" d="M112.378,31.982c-1.708-1.033-3.166-1.52-4.514-1.911l0.753-1.74c0.925,0.219,2.586,0.627,4.592,1.787
			L112.378,31.982z M108.758,35.305c5.783-0.548,8.51-2.381,10.406-8.65l1.787,1.316c-2.146,6.332-5.202,8.746-11.753,9.591
			L108.758,35.305z M113.741,28.252c-1.646-0.909-2.961-1.331-4.655-1.833l0.783-1.693c1.708,0.361,2.963,0.798,4.719,1.662
			L113.741,28.252z"/>
		<path fill="#040000" d="M134.464,25.136c-0.642,3.18-1.802,5.124-2.806,6.518c2.384,1.881,3.229,2.571,5.094,4.419l-1.754,1.694
			c-0.956-1.068-2.289-2.523-4.625-4.562c-1.472,1.646-3.714,3.479-6.096,4.529l-1.191-1.739c2.273-0.971,3.872-2.07,5.548-3.886
			c1.692-1.834,2.523-3.511,3.073-4.999h-7.759v-1.974L134.464,25.136L134.464,25.136z"/>
		<path fill="#040000" d="M139.812,36.012c4.2-0.69,4.968-2.211,5.124-5.219h-5.767v-1.945h12.852v1.945h-4.937
			c-0.219,3.698-1.333,6.111-6.427,7.098L139.812,36.012z M150.783,24.931v1.943h-10.375v-1.943H150.783z"/>
		<path fill="#040000" d="M154.642,35.039h1.505c0.094-0.234,1.647-4.387,3.167-10.578l2.24,0.407
			c-1.364,5.36-2.869,9.011-3.339,10.124c3.166-0.094,3.494-0.126,6.458-0.361c-0.91-1.819-1.74-3.04-2.288-3.84l1.802-0.864
			c1.787,2.352,2.805,4.217,3.887,6.96l-2.07,0.924c-0.265-0.722-0.361-0.988-0.534-1.411c-3.557,0.394-5.109,0.565-10.579,0.798
			L154.642,35.039z"/>
	</g>
</g>
</svg>
